<svg width="246" height="60" viewBox="0 0 246 60" fill="none" xmlns="http://www.w3.org/2000/svg">
<rect width="246" height="59.4912" rx="29.7456" fill="white"/>
<path d="M39.9719 25.8926C40.0934 26.0749 40.1542 26.2877 40.1542 26.5308C40.1542 26.7738 40.0934 26.9562 39.9719 27.0777L34.7757 32.2739C34.6542 32.3955 34.4718 32.4562 34.2287 32.4562C33.9856 32.4562 33.7729 32.3955 33.5906 32.2739L31.0381 29.6302C30.795 29.4479 30.719 29.1896 30.8102 28.8554C30.9014 28.5211 31.0989 28.3084 31.4027 28.2172C31.7066 28.1261 31.9801 28.202 32.2232 28.4451L34.2287 30.4507L38.6956 25.8926C38.878 25.7103 39.0907 25.6191 39.3338 25.6191C39.5769 25.6191 39.7896 25.7103 39.9719 25.8926ZM27.3916 13.677C27.6347 13.677 27.8323 13.753 27.9842 13.9049C28.1361 14.0569 28.2121 14.2544 28.2121 14.4975V15.4091H41.8863V14.4975C41.8863 14.2544 41.9623 14.0569 42.1142 13.9049C42.2661 13.753 42.4636 13.677 42.7067 13.677C42.9498 13.677 43.1625 13.753 43.3449 13.9049C43.5272 14.0569 43.6183 14.2544 43.6183 14.4975V15.4091H45.3504C46.262 15.4091 47.0521 15.7433 47.7206 16.4118C48.3891 17.0804 48.7234 17.8704 48.7234 18.782V37.5613C48.7234 38.5336 48.3891 39.3541 47.7206 40.0226C47.0521 40.6911 46.2316 41.0254 45.2593 41.0254H24.8391C23.8667 41.0254 23.0463 40.6911 22.3778 40.0226C21.7093 39.3541 21.375 38.564 21.375 37.6524V18.782C21.375 17.8704 21.7093 17.0804 22.3778 16.4118C23.0463 15.7433 23.8667 15.4091 24.8391 15.4091H26.48V14.4975C26.48 14.2544 26.5712 14.0569 26.7535 13.9049C26.9358 13.753 27.1485 13.677 27.3916 13.677ZM23.1071 20.5141V37.5613C23.1071 38.0475 23.2742 38.4577 23.6085 38.7919C23.9427 39.1262 24.3529 39.2933 24.8391 39.2933H45.3504C45.7758 39.2933 46.1557 39.1262 46.4899 38.7919C46.8242 38.4577 46.9913 38.0475 46.9913 37.5613V20.5141H23.1071Z" fill="#198F82"/>
<path d="M66.3178 35.7461V23.3026H70.9752C72.5514 23.3026 73.7898 23.6818 74.6905 24.4403C75.603 25.1869 76.0592 26.2298 76.0592 27.5689C76.0592 28.4459 75.8519 29.2044 75.4371 29.8443C75.0341 30.4724 74.4534 30.9583 73.695 31.302C72.9365 31.6338 72.0299 31.7997 70.9752 31.7997H67.0466L67.6332 31.1953V35.7461H66.3178ZM74.8149 35.7461L71.6151 31.2309H73.0372L76.2548 35.7461H74.8149ZM67.6332 31.302L67.0466 30.6798H70.9396C72.184 30.6798 73.1261 30.4072 73.7661 29.8621C74.4179 29.3169 74.7438 28.5526 74.7438 27.5689C74.7438 26.5734 74.4179 25.8031 73.7661 25.258C73.1261 24.7128 72.184 24.4403 70.9396 24.4403H67.0466L67.6332 23.8181V31.302ZM82.8615 35.835C81.8897 35.835 81.0365 35.6335 80.3017 35.2306C79.5669 34.8158 78.9922 34.2529 78.5774 33.5418C78.1626 32.8189 77.9552 31.9953 77.9552 31.0709C77.9552 30.1465 78.1508 29.3288 78.5418 28.6177C78.9448 27.9067 79.4899 27.3497 80.1773 26.9468C80.8765 26.532 81.6586 26.3246 82.5238 26.3246C83.4007 26.3246 84.177 26.526 84.8525 26.929C85.5398 27.3201 86.0791 27.8771 86.4701 28.6C86.8612 29.311 87.0568 30.1347 87.0568 31.0709C87.0568 31.1301 87.0508 31.1953 87.039 31.2664C87.039 31.3257 87.039 31.3909 87.039 31.462H78.9151V30.5198H86.3635L85.8657 30.8931C85.8657 30.2176 85.7176 29.6191 85.4213 29.0977C85.1369 28.5644 84.7458 28.1496 84.2481 27.8534C83.7503 27.5571 83.1756 27.4089 82.5238 27.4089C81.8838 27.4089 81.309 27.5571 80.7994 27.8534C80.2899 28.1496 79.8928 28.5644 79.6084 29.0977C79.324 29.631 79.1818 30.2413 79.1818 30.9287V31.1242C79.1818 31.8353 79.3359 32.4634 79.644 33.0085C79.964 33.5418 80.4024 33.9625 80.9594 34.2706C81.5283 34.5669 82.1742 34.7151 82.8971 34.7151C83.4659 34.7151 83.9933 34.6143 84.4792 34.4129C84.9769 34.2114 85.4035 33.9033 85.7591 33.4885L86.4701 34.3062C86.0553 34.8039 85.5339 35.1832 84.9058 35.4439C84.2896 35.7046 83.6081 35.835 82.8615 35.835ZM93.6077 39.2836C92.7544 39.2836 91.9367 39.1592 91.1545 38.9103C90.3723 38.6614 89.7383 38.3059 89.2524 37.8437L89.8924 36.8838C90.3309 37.2749 90.8701 37.583 91.51 37.8082C92.1618 38.0452 92.8492 38.1637 93.5721 38.1637C94.7572 38.1637 95.6282 37.8852 96.1852 37.3282C96.7422 36.7831 97.0207 35.9298 97.0207 34.7684V32.4397L97.1985 30.8398L97.0741 29.2399V26.4135H98.2829V34.6084C98.2829 36.2201 97.8859 37.3993 97.0918 38.1459C96.3097 38.9044 95.1483 39.2836 93.6077 39.2836ZM93.3766 35.3906C92.4877 35.3906 91.6878 35.2009 90.9767 34.8217C90.2657 34.4306 89.7028 33.8914 89.288 33.2041C88.885 32.5167 88.6836 31.7286 88.6836 30.8398C88.6836 29.951 88.885 29.1688 89.288 28.4933C89.7028 27.8059 90.2657 27.2727 90.9767 26.8934C91.6878 26.5142 92.4877 26.3246 93.3766 26.3246C94.2061 26.3246 94.9527 26.4964 95.6164 26.8401C96.28 27.1838 96.8074 27.6934 97.1985 28.3689C97.5896 29.0444 97.7851 29.868 97.7851 30.8398C97.7851 31.8116 97.5896 32.6352 97.1985 33.3107C96.8074 33.9862 96.28 34.5017 95.6164 34.8573C94.9527 35.2128 94.2061 35.3906 93.3766 35.3906ZM93.501 34.2706C94.1884 34.2706 94.7987 34.1284 95.332 33.844C95.8653 33.5477 96.286 33.1448 96.5941 32.6352C96.9022 32.1138 97.0563 31.5153 97.0563 30.8398C97.0563 30.1643 96.9022 29.5717 96.5941 29.0621C96.286 28.5526 95.8653 28.1556 95.332 27.8711C94.7987 27.5749 94.1884 27.4267 93.501 27.4267C92.8255 27.4267 92.2152 27.5749 91.67 27.8711C91.1367 28.1556 90.716 28.5526 90.4079 29.0621C90.1116 29.5717 89.9635 30.1643 89.9635 30.8398C89.9635 31.5153 90.1116 32.1138 90.4079 32.6352C90.716 33.1448 91.1367 33.5477 91.67 33.844C92.2152 34.1284 92.8255 34.2706 93.501 34.2706ZM105.652 35.835C104.858 35.835 104.165 35.6868 103.573 35.3906C102.98 35.0943 102.518 34.6499 102.186 34.0573C101.866 33.4648 101.706 32.7241 101.706 31.8353V26.4135H102.968V31.6931C102.968 32.6885 103.211 33.4411 103.697 33.9507C104.195 34.4484 104.888 34.6973 105.777 34.6973C106.429 34.6973 106.992 34.5669 107.466 34.3062C107.952 34.0336 108.319 33.6425 108.568 33.133C108.829 32.6234 108.959 32.013 108.959 31.302V26.4135H110.221V35.7461H109.012V33.1863L109.208 33.6485C108.911 34.3358 108.449 34.875 107.821 35.2661C107.205 35.6454 106.482 35.835 105.652 35.835ZM113.739 35.7461V22.556H115.001V35.7461H113.739ZM124.361 35.7461V33.684L124.308 33.3463V29.8976C124.308 29.1036 124.082 28.4933 123.632 28.0667C123.194 27.64 122.536 27.4267 121.659 27.4267C121.054 27.4267 120.48 27.5274 119.935 27.7289C119.389 27.9304 118.927 28.197 118.548 28.5289L117.979 27.5867C118.453 27.1838 119.022 26.8756 119.686 26.6623C120.349 26.4372 121.049 26.3246 121.783 26.3246C122.992 26.3246 123.922 26.6268 124.574 27.2312C125.238 27.8237 125.57 28.7303 125.57 29.951V35.7461H124.361ZM121.143 35.835C120.444 35.835 119.834 35.7224 119.312 35.4972C118.803 35.2602 118.412 34.9402 118.139 34.5373C117.867 34.1225 117.73 33.6485 117.73 33.1152C117.73 32.6293 117.843 32.1908 118.068 31.7997C118.305 31.3968 118.684 31.0768 119.206 30.8398C119.739 30.5909 120.45 30.4665 121.339 30.4665H124.556V31.4086H121.374C120.474 31.4086 119.846 31.5686 119.49 31.8886C119.146 32.2086 118.975 32.6056 118.975 33.0796C118.975 33.6129 119.182 34.0396 119.597 34.3595C120.012 34.6795 120.592 34.8395 121.339 34.8395C122.05 34.8395 122.66 34.6795 123.17 34.3595C123.691 34.0277 124.071 33.5537 124.308 32.9374L124.592 33.8085C124.355 34.4247 123.94 34.9165 123.348 35.2839C122.767 35.6513 122.032 35.835 121.143 35.835ZM128.998 35.7461V26.4135H130.207V28.9555L130.082 28.5111C130.343 27.8 130.781 27.2608 131.398 26.8934C132.014 26.5142 132.778 26.3246 133.691 26.3246V27.5512C133.643 27.5512 133.596 27.5512 133.549 27.5512C133.501 27.5393 133.454 27.5334 133.406 27.5334C132.423 27.5334 131.652 27.8356 131.095 28.44C130.538 29.0325 130.26 29.8799 130.26 30.982V35.7461H128.998ZM144.66 35.835C143.736 35.835 142.906 35.6335 142.172 35.2306C141.449 34.8158 140.88 34.2529 140.465 33.5418C140.05 32.8189 139.843 31.9953 139.843 31.0709C139.843 30.1347 140.05 29.311 140.465 28.6C140.88 27.8889 141.449 27.3319 142.172 26.929C142.906 26.526 143.736 26.3246 144.66 26.3246C145.454 26.3246 146.171 26.4786 146.811 26.7868C147.451 27.0949 147.955 27.5571 148.322 28.1733L147.38 28.8133C147.06 28.3392 146.663 27.9896 146.189 27.7645C145.715 27.5393 145.2 27.4267 144.643 27.4267C143.979 27.4267 143.38 27.5808 142.847 27.8889C142.314 28.1852 141.893 28.6059 141.585 29.151C141.277 29.6962 141.123 30.3361 141.123 31.0709C141.123 31.8056 141.277 32.4456 141.585 32.9907C141.893 33.5359 142.314 33.9625 142.847 34.2706C143.38 34.5669 143.979 34.7151 144.643 34.7151C145.2 34.7151 145.715 34.6025 146.189 34.3773C146.663 34.1521 147.06 33.8085 147.38 33.3463L148.322 33.9862C147.955 34.5906 147.451 35.0528 146.811 35.3728C146.171 35.6809 145.454 35.835 144.66 35.835ZM150.663 35.7461V22.556H151.925V28.9733L151.676 28.4933C151.972 27.8178 152.446 27.2904 153.098 26.9112C153.75 26.5201 154.526 26.3246 155.427 26.3246C156.185 26.3246 156.849 26.4727 157.418 26.769C157.999 27.0534 158.449 27.4919 158.769 28.0844C159.101 28.677 159.267 29.4236 159.267 30.3243V35.7461H158.005V30.4487C158.005 29.4651 157.756 28.7244 157.258 28.2267C156.772 27.7171 156.085 27.4623 155.196 27.4623C154.532 27.4623 153.951 27.5986 153.454 27.8711C152.968 28.1318 152.589 28.517 152.316 29.0266C152.055 29.5243 151.925 30.1287 151.925 30.8398V35.7461H150.663ZM166.64 35.835C165.668 35.835 164.815 35.6335 164.08 35.2306C163.345 34.8158 162.771 34.2529 162.356 33.5418C161.941 32.8189 161.734 31.9953 161.734 31.0709C161.734 30.1465 161.929 29.3288 162.32 28.6177C162.723 27.9067 163.268 27.3497 163.956 26.9468C164.655 26.532 165.437 26.3246 166.302 26.3246C167.179 26.3246 167.955 26.526 168.631 26.929C169.318 27.3201 169.858 27.8771 170.249 28.6C170.64 29.311 170.835 30.1347 170.835 31.0709C170.835 31.1301 170.829 31.1953 170.817 31.2664C170.817 31.3257 170.817 31.3909 170.817 31.462H162.694V30.5198H170.142L169.644 30.8931C169.644 30.2176 169.496 29.6191 169.2 29.0977C168.915 28.5644 168.524 28.1496 168.027 27.8534C167.529 27.5571 166.954 27.4089 166.302 27.4089C165.662 27.4089 165.087 27.5571 164.578 27.8534C164.068 28.1496 163.671 28.5644 163.387 29.0977C163.102 29.631 162.96 30.2413 162.96 30.9287V31.1242C162.96 31.8353 163.114 32.4634 163.422 33.0085C163.742 33.5418 164.181 33.9625 164.738 34.2706C165.307 34.5669 165.953 34.7151 166.676 34.7151C167.244 34.7151 167.772 34.6143 168.258 34.4129C168.755 34.2114 169.182 33.9033 169.538 33.4885L170.249 34.3062C169.834 34.8039 169.312 35.1832 168.684 35.4439C168.068 35.7046 167.387 35.835 166.64 35.835ZM177.279 35.835C176.355 35.835 175.526 35.6335 174.791 35.2306C174.068 34.8158 173.499 34.2529 173.084 33.5418C172.669 32.8189 172.462 31.9953 172.462 31.0709C172.462 30.1347 172.669 29.311 173.084 28.6C173.499 27.8889 174.068 27.3319 174.791 26.929C175.526 26.526 176.355 26.3246 177.279 26.3246C178.073 26.3246 178.79 26.4786 179.43 26.7868C180.07 27.0949 180.574 27.5571 180.941 28.1733L179.999 28.8133C179.679 28.3392 179.282 27.9896 178.808 27.7645C178.334 27.5393 177.819 27.4267 177.262 27.4267C176.598 27.4267 176 27.5808 175.466 27.8889C174.933 28.1852 174.512 28.6059 174.204 29.151C173.896 29.6962 173.742 30.3361 173.742 31.0709C173.742 31.8056 173.896 32.4456 174.204 32.9907C174.512 33.5359 174.933 33.9625 175.466 34.2706C176 34.5669 176.598 34.7151 177.262 34.7151C177.819 34.7151 178.334 34.6025 178.808 34.3773C179.282 34.1521 179.679 33.8085 179.999 33.3463L180.941 33.9862C180.574 34.5906 180.07 35.0528 179.43 35.3728C178.79 35.6809 178.073 35.835 177.279 35.835ZM184.277 33.3285L184.313 31.7108L190.126 26.4135H191.672L187.566 30.3421L186.855 30.9465L184.277 33.3285ZM183.282 35.7461V22.556H184.544V35.7461H183.282ZM190.517 35.7461L186.624 30.8931L187.442 29.9154L192.063 35.7461H190.517ZM192.831 31.4797V30.3776H197.488V31.4797H192.831ZM200.312 35.7461V26.4135H201.574V35.7461H200.312ZM200.952 24.3514C200.691 24.3514 200.472 24.2625 200.294 24.0847C200.116 23.907 200.027 23.6937 200.027 23.4448C200.027 23.1959 200.116 22.9885 200.294 22.8226C200.472 22.6449 200.691 22.556 200.952 22.556C201.213 22.556 201.432 22.6389 201.61 22.8048C201.787 22.9708 201.876 23.1781 201.876 23.427C201.876 23.6877 201.787 23.907 201.61 24.0847C201.444 24.2625 201.224 24.3514 200.952 24.3514ZM205.086 35.7461V26.4135H206.295V28.9733L206.099 28.4933C206.395 27.8178 206.869 27.2904 207.521 26.9112C208.173 26.5201 208.949 26.3246 209.85 26.3246C210.608 26.3246 211.272 26.4727 211.841 26.769C212.422 27.0534 212.872 27.4919 213.192 28.0844C213.524 28.677 213.69 29.4236 213.69 30.3243V35.7461H212.427V30.4487C212.427 29.4651 212.179 28.7244 211.681 28.2267C211.195 27.7171 210.508 27.4623 209.619 27.4623C208.955 27.4623 208.374 27.5986 207.877 27.8711C207.391 28.1318 207.012 28.517 206.739 29.0266C206.478 29.5243 206.348 30.1287 206.348 30.8398V35.7461H205.086ZM219.605 35.835C218.835 35.835 218.106 35.7283 217.419 35.515C216.731 35.2898 216.192 35.0113 215.801 34.6795L216.37 33.684C216.749 33.9684 217.235 34.2173 217.828 34.4306C218.42 34.6321 219.042 34.7328 219.694 34.7328C220.583 34.7328 221.223 34.5966 221.614 34.324C222.005 34.0396 222.201 33.6662 222.201 33.2041C222.201 32.8604 222.088 32.5937 221.863 32.4041C221.65 32.2027 221.365 32.0545 221.01 31.9597C220.654 31.8531 220.257 31.7642 219.819 31.6931C219.38 31.622 218.942 31.539 218.503 31.4442C218.077 31.3494 217.685 31.2131 217.33 31.0353C216.974 30.8457 216.684 30.5909 216.459 30.2709C216.246 29.951 216.139 29.5243 216.139 28.991C216.139 28.4815 216.281 28.0252 216.566 27.6223C216.85 27.2193 217.265 26.9053 217.81 26.6801C218.367 26.4431 219.042 26.3246 219.836 26.3246C220.441 26.3246 221.045 26.4075 221.65 26.5734C222.254 26.7275 222.752 26.9349 223.143 27.1956L222.592 28.2089C222.177 27.9245 221.733 27.723 221.259 27.6045C220.784 27.4741 220.31 27.4089 219.836 27.4089C218.995 27.4089 218.373 27.5571 217.97 27.8534C217.579 28.1378 217.383 28.5052 217.383 28.9555C217.383 29.311 217.49 29.5895 217.703 29.791C217.928 29.9925 218.219 30.1524 218.574 30.2709C218.942 30.3776 219.339 30.4665 219.765 30.5376C220.204 30.6087 220.636 30.6976 221.063 30.8042C221.501 30.899 221.898 31.0353 222.254 31.2131C222.621 31.379 222.912 31.622 223.125 31.9419C223.35 32.2501 223.463 32.6589 223.463 33.1685C223.463 33.7137 223.309 34.1877 223.001 34.5906C222.704 34.9817 222.266 35.2898 221.685 35.515C221.116 35.7283 220.423 35.835 219.605 35.835Z" fill="#28322F"/>
</svg>
